<svg width="343" height="60" viewBox="0 0 343 60" fill="none" xmlns="http://www.w3.org/2000/svg">
<rect width="343" height="60" fill="#121212"/>
<rect y="59" width="343" height="1" fill="white" fill-opacity="0.32"/>
<g opacity="0.32">
<path opacity="0.35" fill-rule="evenodd" clip-rule="evenodd" d="M320.914 24.5024C321.962 24.5024 322.348 24.5938 322.733 24.7995C323.079 24.9846 323.351 25.2563 323.536 25.6024C323.742 25.9871 323.833 26.3739 323.833 27.421V31.9173C323.833 32.9644 323.742 33.3511 323.536 33.7358C323.351 34.0819 323.079 34.3536 322.733 34.5387C322.348 34.7444 321.962 34.8358 320.914 34.8358H305.752C304.704 34.8358 304.318 34.7444 303.933 34.5387C303.587 34.3536 303.315 34.0819 303.13 33.7358C302.924 33.3511 302.833 32.9644 302.833 31.9173V27.421C302.833 26.3739 302.924 25.9871 303.13 25.6024C303.315 25.2563 303.587 24.9846 303.933 24.7995C304.318 24.5938 304.704 24.5024 305.752 24.5024H320.914Z" stroke="white"/>
<path opacity="0.4" d="M325.333 27.6689V31.6689C326.138 31.3302 326.661 30.5421 326.661 29.6689C326.661 28.7958 326.138 28.0077 325.333 27.6689Z" fill="white"/>
<path d="M306.042 26.0024H320.624C321.218 26.0024 321.434 26.0643 321.651 26.1805C321.868 26.2967 322.039 26.4673 322.155 26.6845C322.271 26.9018 322.333 27.1174 322.333 27.7117V31.6265C322.333 32.2209 322.271 32.4364 322.155 32.6537C322.039 32.871 321.868 33.0415 321.651 33.1577C321.434 33.2739 321.218 33.3358 320.624 33.3358H306.042C305.448 33.3358 305.232 33.2739 305.015 33.1577C304.798 33.0415 304.627 32.871 304.511 32.6537C304.395 32.4364 304.333 32.2209 304.333 31.6265V27.7117C304.333 27.1174 304.395 26.9018 304.511 26.6845C304.627 26.4673 304.798 26.2967 305.015 26.1805C305.232 26.0643 305.448 26.0024 306.042 26.0024Z" fill="white"/>
<path d="M289.667 26.2845C291.892 26.2846 294.031 27.1387 295.644 28.6703C295.765 28.7885 295.959 28.787 296.079 28.6669L297.24 27.4966C297.3 27.4357 297.334 27.3532 297.333 27.2673C297.333 27.1815 297.298 27.0994 297.237 27.0392C293.005 22.9869 286.329 22.9869 282.097 27.0392C282.035 27.0993 282.001 27.1814 282 27.2673C281.999 27.3531 282.033 27.4356 282.094 27.4966L283.255 28.6669C283.374 28.7872 283.568 28.7887 283.69 28.6703C285.302 27.1386 287.442 26.2845 289.667 26.2845ZM289.667 30.0921C290.889 30.092 292.068 30.5459 292.974 31.3657C293.097 31.4821 293.29 31.4795 293.409 31.36L294.569 30.1897C294.63 30.1283 294.663 30.045 294.663 29.9585C294.662 29.872 294.626 29.7894 294.564 29.7293C291.805 27.1649 287.532 27.1649 284.773 29.7293C284.71 29.7894 284.675 29.872 284.674 29.9586C284.673 30.0451 284.707 30.1284 284.768 30.1897L285.927 31.36C286.047 31.4795 286.24 31.4821 286.362 31.3657C287.268 30.5465 288.446 30.0926 289.667 30.0921ZM291.895 32.8851C291.957 32.8243 291.991 32.7407 291.989 32.6539C291.988 32.5671 291.95 32.4849 291.886 32.4267C290.605 31.3444 288.729 31.3444 287.449 32.4267C287.384 32.4849 287.347 32.567 287.345 32.6538C287.343 32.7406 287.377 32.8243 287.439 32.8851L289.445 34.9071C289.503 34.9666 289.583 35 289.667 35C289.751 35 289.831 34.9666 289.89 34.9071L291.895 32.8851Z" fill="white"/>
<path d="M261 31.0026H262C262.552 31.0026 263 31.4503 263 32.0026V34.0026C263 34.5549 262.552 35.0026 262 35.0026H261C260.448 35.0026 260 34.5549 260 34.0026V32.0026C260 31.4503 260.448 31.0026 261 31.0026ZM265.667 29.0026H266.667C267.219 29.0026 267.667 29.4503 267.667 30.0026V34.0026C267.667 34.5549 267.219 35.0026 266.667 35.0026H265.667C265.114 35.0026 264.667 34.5549 264.667 34.0026V30.0026C264.667 29.4503 265.114 29.0026 265.667 29.0026ZM270.333 26.6693H271.333C271.886 26.6693 272.333 27.117 272.333 27.6693V34.0026C272.333 34.5549 271.886 35.0026 271.333 35.0026H270.333C269.781 35.0026 269.333 34.5549 269.333 34.0026V27.6693C269.333 27.117 269.781 26.6693 270.333 26.6693ZM275 24.3359H276C276.552 24.3359 277 24.7837 277 25.3359V34.0026C277 34.5549 276.552 35.0026 276 35.0026H275C274.448 35.0026 274 34.5549 274 34.0026V25.3359C274 24.7837 274.448 24.3359 275 24.3359Z" fill="white"/>
<path d="M20.3242 35.2661C22.9829 35.2661 24.5869 33.1567 24.5869 29.5972V29.5825C24.5869 25.7739 22.624 24.1699 20.3682 24.1699C18.0757 24.1699 16.4424 25.7373 16.4424 27.8833V27.8979C16.4424 29.9048 17.8633 31.3843 19.8921 31.3843C21.3423 31.3843 22.2651 30.6445 22.6533 29.8096H22.7998C22.7998 29.8901 22.7925 29.9707 22.7925 30.0513C22.7119 32.0728 22.0015 33.7134 20.3242 33.7134C19.394 33.7134 18.7422 33.23 18.4639 32.4902L18.4419 32.417H16.5815L16.5962 32.4976C16.9331 34.1162 18.3833 35.2661 20.3242 35.2661ZM20.3608 29.9341C19.1597 29.9341 18.2881 29.0552 18.2881 27.832V27.8174C18.2881 26.6382 19.2183 25.708 20.3828 25.708C21.5547 25.708 22.4702 26.6528 22.4702 27.8613V27.876C22.4702 29.0698 21.5547 29.9341 20.3608 29.9341ZM27.6048 28.1543C28.2786 28.1543 28.7693 27.6416 28.7693 26.9971C28.7693 26.3452 28.2786 25.8398 27.6048 25.8398C26.9383 25.8398 26.4402 26.3452 26.4402 26.9971C26.4402 27.6416 26.9383 28.1543 27.6048 28.1543ZM27.6048 33.5889C28.2786 33.5889 28.7693 33.0835 28.7693 32.4316C28.7693 31.7798 28.2786 31.2744 27.6048 31.2744C26.9383 31.2744 26.4402 31.7798 26.4402 32.4316C26.4402 33.0835 26.9383 33.5889 27.6048 33.5889ZM37.566 35.0024V32.9736H38.9869V31.4136H37.566V24.4336H34.8927C33.4571 26.6162 31.9557 29.0479 30.586 31.4282V32.9736H35.7569V35.0024H37.566ZM35.7862 31.4575H32.3438V31.3477C33.3692 29.5532 34.5924 27.5977 35.6764 25.9424H35.7862V31.4575ZM44.9564 35.0024V24.4336H43.0741L40.3129 26.3745V28.1543L42.9423 26.2939H43.0668V35.0024H44.9564Z" fill="white"/>
</g>
</svg>
